<svg width="249" height="83" viewBox="0 0 249 83" fill="none" xmlns="http://www.w3.org/2000/svg">
<g clip-path="url(#clip0_517_9)">
<path fill-rule="evenodd" clip-rule="evenodd" d="M68.1226 79.4547C67.9793 80.337 67.6889 80.9559 67.2514 81.3113C66.8138 81.6668 66.1858 81.8442 65.3671 81.8436C64.4562 81.8436 63.7476 81.5004 63.2413 80.8139C62.735 80.1274 62.4818 79.2029 62.4815 78.0402V77.0033C62.4815 75.7723 62.7488 74.8232 63.2834 74.1562C63.8179 73.4891 64.5561 73.1557 65.4978 73.156C66.2653 73.156 66.8627 73.3477 67.29 73.731C67.7172 74.1144 67.9948 74.7337 68.1228 75.5891H69.6041C69.4864 74.4669 69.0694 73.5884 68.3531 72.9538C67.6367 72.3191 66.685 72.0018 65.4978 72.0018C64.6022 72.0018 63.8142 72.204 63.1337 72.6083C62.4406 73.0262 61.8918 73.631 61.5564 74.3468C61.1854 75.1015 60.9999 75.9763 61 76.9711V78.0001C61 79.5189 61.3978 80.7319 62.1934 81.639C62.9891 82.5461 64.047 82.9994 65.3673 82.9991C66.585 82.9991 67.5609 82.6916 68.295 82.0766C69.0291 81.4616 69.4653 80.5879 69.6036 79.4555H68.1226V79.4547ZM85.9668 77.1685C85.9668 76.1247 85.7829 75.2095 85.4149 74.4229C85.0457 73.6364 84.5198 73.0361 83.8373 72.622C83.1269 72.2006 82.3045 71.9849 81.4691 72.0008C80.6402 71.987 79.8252 72.2055 79.1242 72.6294C78.4417 73.0484 77.9133 73.6524 77.5391 74.4413C77.1662 75.2304 76.9795 76.1395 76.9792 77.1685V77.941C76.9894 78.9506 77.1826 79.8387 77.5587 80.6054C77.8907 81.3329 78.4415 81.9491 79.1409 82.3754C79.8402 82.8017 80.6563 83.0187 81.4849 82.9987C82.3856 82.9987 83.1735 82.7927 83.8485 82.3807C84.5245 81.9691 85.0466 81.3725 85.4149 80.5911C85.7832 79.8097 85.9672 78.8945 85.9668 77.8454V77.1691V77.1685ZM84.5012 77.9477C84.4853 79.1875 84.2168 80.1396 83.6956 80.8039C83.1744 81.4682 82.4375 81.8002 81.4849 81.7998C80.5376 81.7998 79.7942 81.4483 79.2547 80.7451C78.7152 80.042 78.4454 79.0753 78.4454 77.845V77.0584C78.4603 75.8528 78.7354 74.9107 79.2706 74.232C79.8051 73.5533 80.538 73.2139 81.4691 73.2139C82.4257 73.2139 83.1704 73.5533 83.7031 74.232C84.2357 74.9107 84.5018 75.8847 84.5012 77.1539V77.9479V77.9477ZM93.9116 72.1479V82.8509H95.3847V78.6831L95.2393 74.2063L98.9007 82.8509H100.029L103.698 74.1842L103.56 78.6831V82.8509H105.033V72.1481H103.122L99.4685 80.8809L95.8145 72.1481H93.9116V72.1479ZM113.379 72.1479V82.8509H114.854V78.6831L114.708 74.2063L118.369 82.8509H119.497L123.166 74.1842L123.028 78.6831V82.8509H124.502V72.1481H122.59L118.936 80.8809L115.283 72.1481H113.379V72.1479ZM139.165 76.7495H134.321V73.3023H139.871V72.1481H132.848V82.8509H139.948V81.6971H134.321V77.9037H139.165V76.7497V76.7495ZM154.013 82.8507H155.594V82.7623L152.97 78.2194C153.596 78.0062 154.142 77.6201 154.539 77.1097C154.919 76.603 155.117 75.9915 155.103 75.3676C155.103 74.3189 154.764 73.5201 154.087 72.9712C153.408 72.4224 152.44 72.148 151.182 72.1479H147.482V82.8509H148.963V78.5215H151.588L154.013 82.8507ZM148.963 73.302H151.22C151.997 73.3069 152.592 73.4861 153.004 73.8396C153.416 74.1931 153.622 74.7012 153.622 75.3638C153.622 75.9727 153.406 76.4588 152.974 76.8221C152.541 77.1854 151.959 77.367 151.227 77.3668H148.963V73.3022V73.302ZM169.655 79.4545C169.512 80.3368 169.221 80.9557 168.784 81.3111C168.346 81.6666 167.718 81.8441 166.899 81.8436C165.989 81.8436 165.28 81.5004 164.774 80.8139C164.266 80.1271 164.013 79.2026 164.014 78.0402V77.0033C164.014 75.7723 164.281 74.8232 164.816 74.1562C165.35 73.4891 166.088 73.1557 167.03 73.156C167.797 73.156 168.395 73.3477 168.822 73.731C169.249 74.1144 169.527 74.7337 169.655 75.5891H171.136C171.019 74.4669 170.602 73.5884 169.885 72.9538C169.168 72.3191 168.217 72.0018 167.03 72.0018C166.135 72.0018 165.347 72.204 164.666 72.6083C163.973 73.0263 163.424 73.6311 163.089 74.3468C162.718 75.1015 162.532 75.9763 162.532 76.9711V78.0001C162.532 79.5189 162.93 80.7319 163.726 81.639C164.521 82.5461 165.579 82.9994 166.899 82.9991C168.117 82.9991 169.093 82.6916 169.828 82.0766C170.563 81.4616 170.999 80.5879 171.136 79.4555H169.655V79.4545ZM185.217 76.7495H180.374V73.3023H185.923V72.1481H178.9V82.8509H186V81.6971H180.374V77.9037H185.217V76.7497V76.7495Z" fill="#8A9499"/>
<path fill-rule="evenodd" clip-rule="evenodd" d="M243.909 1.77047H242.61V5.32225H241.892V1.77047H240.605V1.19161H243.909V1.77047ZM245.394 1.19161L246.597 4.35758L247.795 1.19161H248.732V5.32216H248.01V3.96047L248.081 2.1391L246.85 5.32216H246.333L245.105 2.14204L245.177 3.96047V5.32216H244.455V1.19171H245.394V1.19161ZM129.758 1.31253H161.086C168.677 1.31253 173.409 3.76302 176.266 6.38863C178.766 8.75183 181.446 12.9525 181.446 19.429C181.446 23.1043 180.642 27.6558 176.803 31.3308C174.749 33.2563 171.802 35.0071 168.498 35.7946L186.804 59.6868H170.016L148.061 27.8304H157.068C159.568 27.8304 162.962 27.568 165.283 25.2927C166.265 24.33 167.516 22.4926 167.516 19.6037C167.516 16.2784 165.908 14.5282 164.748 13.6528C162.515 11.9897 158.943 11.8152 157.158 11.8152H137.057L129.758 1.31253ZM239.713 8.48932C245.339 13.8277 249 21.5291 249 30.5433C249 38.3331 246.143 46.2967 239.713 52.4228C234.177 57.6742 226.675 61 216.675 61C205.512 61 197.922 56.624 193.457 52.4228C187.743 47.1714 184.17 39.2952 184.17 30.7185C184.17 22.3166 188.011 13.8273 193.369 8.57661C197.386 4.63846 204.798 0 216.675 0C225.961 9.18817e-05 233.73 2.80092 239.713 8.48932ZM203.548 17.4157C200.959 19.8661 198.279 24.1547 198.279 30.6313C198.279 35.9696 200.066 40.2579 203.726 43.7589C207.566 47.3473 211.853 48.5719 216.496 48.5719C222.568 48.5719 226.854 46.3839 229.712 43.5837C232.034 41.3958 234.891 37.2823 234.891 30.5433C234.891 24.5045 232.391 20.0412 229.712 17.4157C226.766 14.6153 222.032 12.4275 216.585 12.4275C211.407 12.4276 206.762 14.2656 203.548 17.4158V17.4157ZM61.8839 59.3252H78.7701L39.3851 1.00418L0 59.3252H16.8862L39.3851 26.0089L61.8839 59.3252ZM91.6318 43.759C87.971 40.2583 86.1849 35.9694 86.1849 30.6313C86.1849 24.1548 88.864 19.8662 91.4537 17.4158C94.668 14.2656 99.3113 12.4276 104.491 12.4276C109.425 12.4276 113.768 14.2251 116.733 16.6449L124.153 5.65725C118.739 1.87172 112.166 0.000367325 104.58 0.000367325C92.7038 0.000367325 85.2918 4.63883 81.273 8.57697C75.9156 13.8274 72.0759 22.3167 72.0759 30.7186C72.0759 39.2952 75.6475 47.1715 81.3625 52.4228C83.6328 54.5461 86.2234 56.3093 89.0421 57.6497L96.2844 46.9249C94.5707 46.1235 92.9995 45.0544 91.6318 43.759Z" fill="#F95E27"/>
</g>
<defs>
<clipPath id="clip0_517_9">
<rect width="249" height="83" fill="white"/>
</clipPath>
</defs>
</svg>
